<?xml version="1.0" standalone="no"?>
<!DOCTYPE svg PUBLIC "-//W3C//DTD SVG 20010904//EN"
 "http://www.w3.org/TR/2001/REC-SVG-20010904/DTD/svg10.dtd">
<svg version="1.0" xmlns="http://www.w3.org/2000/svg"
 width="400.000000pt" height="400.000000pt" viewBox="0 0 400.000000 400.000000"
 preserveAspectRatio="xMidYMid meet">
<metadata>
Created by potrace 1.14, written by Peter Selinger 2001-2017
</metadata>
<g transform="translate(0.000000,400.000000) scale(0.100000,-0.100000)"
fill="#000000" stroke="none">
<path d="M0 2290 l0 -1710 25 0 c13 0 29 8 35 18 9 16 11 16 21 -1 8 -13 18
-17 35 -13 14 4 28 1 36 -8 9 -10 17 -10 30 -3 12 8 24 7 44 -2 22 -10 29 -10
36 1 6 11 10 10 17 -1 6 -9 16 -11 27 -6 36 14 82 14 88 -1 7 -17 27 -19 23
-2 -1 8 17 12 58 13 66 1 87 -3 80 -15 -3 -4 3 -7 12 -6 24 2 27 -21 3 -27
-26 -7 -26 -24 0 -32 19 -6 18 -10 -20 -46 -44 -43 -47 -49 -25 -49 20 0 19
-9 -2 -33 -18 -19 -17 -20 22 -13 39 7 39 7 18 -9 -27 -19 -28 -32 -8 -71 9
-17 11 -30 5 -32 -21 -7 -9 -32 15 -32 21 0 25 -5 25 -31 0 -28 3 -31 24 -25
21 5 23 3 20 -26 -2 -17 1 -37 7 -44 7 -8 7 -14 -1 -19 -7 -4 -7 -12 0 -26 6
-11 8 -24 5 -29 -10 -15 55 -12 70 4 8 7 41 16 74 20 33 4 63 11 66 17 4 5 22
7 41 3 24 -4 42 -1 61 11 19 13 28 15 31 6 3 -9 11 -8 28 4 14 9 30 13 36 9 6
-4 27 -7 47 -8 23 -1 35 -5 34 -13 -2 -7 2 -13 8 -13 6 0 9 -6 6 -14 -3 -8 1
-20 9 -26 11 -10 14 -9 14 8 0 12 10 26 21 33 21 11 22 10 16 -20 -8 -38 -2
-39 18 -3 l16 27 -4 -28 c-3 -18 0 -27 9 -27 8 0 14 5 14 12 0 9 3 9 12 0 18
-18 1154 -17 1161 1 4 9 6 9 6 0 1 -7 8 -13 17 -13 14 0 14 3 4 15 -7 9 -10
18 -7 21 3 3 10 -4 17 -15 10 -20 17 -21 273 -21 272 0 307 3 307 26 0 25 62
48 128 48 58 1 61 2 35 13 -18 8 -22 12 -10 13 9 0 17 5 17 10 0 6 6 10 13 10
7 0 35 20 60 45 39 37 44 45 26 45 -18 0 -19 2 -5 15 12 13 99 55 112 55 2 0
4 -4 4 -10 0 -5 -9 -10 -20 -10 -11 0 -23 -7 -27 -16 -3 -9 -13 -14 -23 -11
-13 3 -16 0 -12 -15 4 -15 12 -18 41 -16 23 2 40 -2 48 -12 18 -23 25 -6 9 24
-8 16 -16 22 -18 15 -3 -9 -6 -8 -11 4 -7 19 5 22 34 7 10 -6 19 -21 19 -34 0
-29 16 -34 98 -30 34 1 62 -2 62 -6 0 -5 47 -8 104 -6 89 3 106 1 111 -13 6
-14 9 -13 25 7 17 21 19 21 24 4 4 -11 4 -27 0 -36 -3 -9 -1 -16 5 -16 6 0 11
13 11 28 0 25 4 29 30 30 17 0 30 -4 30 -9 0 -5 5 -9 10 -9 7 0 10 648 10
1925 l0 1925 -2000 0 -2000 0 0 -1710z m2331 1463 c-12 -20 -14 -14 -5 12 4 9
9 14 11 11 3 -2 0 -13 -6 -23z m-45 -124 c-9 -19 -15 -29 -16 -22 0 15 22 64
27 60 2 -2 -3 -19 -11 -38z m148 -41 c0 -2 12 -18 24 -36 14 -20 21 -40 17
-50 -7 -19 -4 -28 7 -25 4 2 5 -4 2 -12 -4 -8 -10 -15 -15 -15 -12 0 -11 -97
1 -119 9 -18 12 -18 77 0 37 11 77 19 88 18 11 0 -13 -9 -54 -20 -94 -24 -109
-42 -113 -144 -3 -60 25 -142 49 -147 11 -2 16 -17 17 -53 1 -27 4 -54 7 -60
4 -5 10 -25 14 -42 4 -19 13 -33 21 -33 10 0 13 -6 10 -18 -4 -10 5 -30 23
-51 l29 -34 36 30 c19 17 33 33 32 35 -2 1 15 21 37 43 l40 40 -24 -35 c-13
-19 -47 -60 -76 -91 -29 -31 -50 -59 -45 -63 4 -4 2 -6 -3 -5 -6 2 -22 -5 -37
-15 -24 -16 -26 -20 -12 -33 9 -10 24 -13 42 -9 l27 6 -27 -15 c-29 -16 -37
-35 -15 -35 6 0 41 7 77 16 36 8 83 18 105 20 22 3 105 16 184 30 84 14 179
23 225 22 l81 -1 -105 -7 c-58 -4 -128 -12 -155 -18 -28 -6 -93 -19 -145 -28
-52 -9 -128 -25 -167 -35 -40 -11 -76 -19 -80 -19 -4 0 -3 -4 3 -10 5 -5 57
-14 114 -20 276 -26 580 -76 642 -105 18 -8 24 -13 13 -9 -91 26 -328 63 -608
95 -144 16 -129 5 20 -15 128 -17 199 -33 189 -43 -2 -3 -20 0 -38 5 -18 6
-62 13 -98 16 l-65 6 90 -29 c224 -72 323 -119 425 -201 42 -33 11 -22 -39 14
-59 43 -105 66 -222 112 -123 47 -276 91 -347 99 -31 4 -65 9 -74 11 -10 3
-18 1 -18 -4 0 -5 21 -15 48 -22 26 -7 52 -16 57 -20 6 -4 46 -20 90 -35 68
-24 159 -68 248 -118 12 -7 37 -27 57 -46 19 -19 26 -28 15 -20 -11 8 -22 17
-25 20 -5 5 -104 62 -140 79 -8 4 -37 19 -65 33 -45 23 -138 48 -125 34 3 -3
37 -21 75 -41 77 -40 68 -50 -11 -12 -70 34 -74 22 -7 -28 32 -24 66 -52 75
-62 9 -11 23 -24 30 -31 24 -22 40 -44 35 -49 -2 -3 -24 15 -48 39 -74 72
-142 124 -215 163 -74 39 -103 59 -69 49 17 -5 17 -4 -2 6 -29 15 -79 4 -64
-15 6 -7 8 -16 4 -20 -4 -3 -8 -16 -10 -28 -2 -12 -10 -30 -19 -39 -14 -16
-14 -20 1 -43 16 -23 16 -28 1 -57 -9 -18 -14 -41 -10 -51 5 -16 2 -18 -20
-12 -26 6 -31 0 -27 -33 1 -6 -8 -15 -20 -18 -20 -7 -20 -8 -6 -17 28 -15 19
-24 -19 -20 -21 3 -34 1 -31 -5 3 -5 -10 -18 -29 -28 -20 -10 -40 -27 -45 -37
-5 -10 -16 -18 -25 -18 -11 0 -12 -4 -4 -19 16 -30 13 -34 -25 -27 -27 5 -35
4 -36 -9 -1 -8 -3 -19 -4 -25 -1 -5 -3 -15 -4 -20 -1 -7 -7 -7 -20 0 -27 14
-29 13 -33 -12 -2 -15 4 -27 17 -33 24 -13 34 -48 11 -39 -12 5 -16 0 -16 -20
0 -18 -4 -24 -14 -20 -20 8 -29 -12 -16 -36 9 -16 8 -20 -5 -20 -18 0 -18 1 0
-43 8 -20 15 -39 15 -43 0 -4 -7 -1 -15 6 -12 10 -15 10 -15 -4 0 -20 -9 -20
-32 1 -28 25 -33 8 -11 -37 18 -35 19 -40 4 -41 -10 0 -11 -2 -3 -6 6 -2 12
-9 12 -14 0 -6 -4 -7 -10 -4 -5 3 -10 1 -10 -5 0 -6 -5 -17 -12 -24 -10 -11
-15 -11 -26 1 -11 11 -16 10 -29 -3 -21 -20 -7 -64 24 -79 11 -6 28 -16 36
-23 12 -10 22 -9 53 9 22 12 44 28 50 36 9 10 18 11 38 3 18 -6 26 -6 26 1 0
6 7 9 15 5 10 -4 15 1 15 15 0 13 5 19 13 16 6 -2 23 -7 37 -11 23 -6 23 -6 5
5 -19 12 -19 12 0 20 40 15 84 10 96 -12 15 -28 -3 -48 -26 -29 -14 11 -18 11
-25 0 -4 -7 -14 -10 -22 -7 -9 3 -15 -1 -15 -9 0 -8 5 -14 11 -14 6 0 4 -5 -4
-10 -20 -13 -33 -13 -25 0 3 6 2 10 -4 10 -21 0 -19 -18 4 -40 13 -13 22 -26
19 -31 -2 -4 6 -18 18 -30 l23 -21 -25 12 c-14 7 -29 19 -35 25 -5 7 -25 15
-44 19 -28 5 -32 4 -21 -9 6 -8 9 -19 5 -25 -3 -5 3 -23 14 -39 27 -37 27 -47
1 -21 -25 25 -49 27 -28 3 18 -22 51 -104 44 -111 -8 -7 -86 46 -86 58 0 6 4
10 9 10 5 0 0 11 -12 24 -16 18 -25 22 -34 14 -10 -8 -13 -6 -13 5 0 8 -7 17
-15 21 -9 3 -15 0 -15 -9 0 -8 -4 -15 -10 -15 -5 0 -10 -7 -10 -16 0 -11 -5
-14 -16 -10 -15 6 -15 4 -2 -16 8 -13 29 -27 46 -32 27 -9 31 -14 28 -43 -2
-28 2 -35 31 -48 18 -9 33 -18 33 -21 0 -3 -4 -2 -10 1 -5 3 -10 -1 -10 -9 0
-19 1 -19 -44 -1 -20 8 -42 24 -48 35 -7 11 -20 20 -28 20 -13 0 -70 54 -70
66 0 13 26 0 47 -22 17 -19 28 -23 35 -16 11 11 4 23 -42 69 -18 18 -30 23
-50 18 -14 -4 -26 -8 -27 -9 -9 -9 -19 -97 -12 -102 5 -3 9 -20 9 -39 0 -19 5
-37 10 -40 6 -3 10 -17 10 -30 0 -27 19 -75 31 -75 4 0 12 -14 18 -31 8 -24 8
-34 -3 -45 -8 -8 -19 -14 -24 -14 -5 0 -9 -24 -9 -52 0 -29 -2 -80 -5 -112 -6
-63 4 -86 38 -86 13 0 15 3 7 11 -13 13 -1 53 24 81 24 27 38 22 19 -7 -30
-46 -13 -49 32 -5 31 29 62 40 62 21 0 -5 8 -17 18 -27 26 -26 28 -185 2 -169
-16 10 -71 -25 -81 -52 -5 -14 -12 -23 -16 -20 -3 4 2 22 11 41 9 19 16 43 16
55 0 12 5 21 10 21 6 0 10 9 10 21 0 36 -24 15 -36 -31 -10 -42 -63 -110 -86
-110 -6 0 -8 -40 -5 -105 2 -58 0 -108 -4 -111 -5 -3 -9 -17 -9 -30 0 -26 -34
-63 -57 -64 -7 0 -18 10 -24 22 -12 22 -47 60 -82 87 -14 11 -20 11 -34 0 -13
-11 -17 -11 -20 -1 -9 24 -23 11 -17 -15 6 -22 4 -25 -9 -20 -22 8 -30 -8 -17
-35 11 -22 10 -22 -4 -4 -9 11 -16 25 -16 30 0 6 -5 4 -10 -4 -9 -13 -11 -13
-20 0 -14 22 -13 -5 1 -33 l12 -22 -23 20 -23 20 8 -24 c5 -15 4 -21 -3 -17
-6 3 -13 -2 -15 -11 -3 -12 -5 -8 -6 9 0 14 -4 33 -7 42 -9 23 -26 20 -19 -4
3 -11 4 -20 1 -20 -14 0 -35 63 -45 140 -25 179 -40 218 -66 162 -5 -12 -13
-22 -17 -22 -5 0 -8 -8 -8 -17 0 -37 -35 32 -36 72 -3 61 -36 141 -57 137 -9
-2 -17 1 -17 7 0 6 5 11 12 11 6 0 9 3 6 6 -4 3 -17 -1 -30 -9 -12 -8 -51 -17
-86 -20 -61 -5 -63 -4 -47 13 15 16 14 18 -14 22 -17 2 -36 1 -43 -4 -7 -4
-32 -8 -55 -8 -23 0 -54 -5 -70 -10 -26 -9 -27 -9 -9 5 11 8 34 15 52 15 18 0
36 4 39 10 3 5 17 10 30 10 13 0 27 5 31 11 4 7 24 9 53 5 46 -5 46 -5 16 9
-16 8 -38 14 -48 15 -10 0 -16 3 -14 8 7 9 -151 8 -183 -3 -22 -7 -23 -6 -12
8 12 14 8 16 -33 19 l-47 3 35 36 c32 33 34 38 19 52 -14 15 -14 18 4 38 19
22 19 22 -3 11 -12 -7 -24 -17 -26 -24 -3 -8 -6 -5 -6 5 -1 11 13 32 29 47 18
17 26 31 20 35 -5 3 -14 3 -20 0 -5 -3 -10 1 -10 9 0 9 6 16 13 17 9 0 9 2 -1
6 -10 4 -9 10 5 25 18 20 18 21 -7 13 l-25 -7 23 19 c12 11 22 23 22 26 0 3
-10 3 -22 1 l-23 -5 22 17 c13 9 23 21 23 27 0 5 7 15 16 21 11 8 13 20 9 39
-6 22 -11 26 -27 21 -14 -4 -18 -2 -14 5 4 6 16 11 27 11 16 0 19 5 14 20 -4
12 -2 20 5 20 7 0 4 7 -5 16 -15 16 -18 16 -36 -3 -17 -17 -25 -33 -28 -64 -1
-4 -7 -9 -15 -12 -10 -4 -13 4 -12 31 1 29 5 36 19 34 10 -2 17 3 17 13 0 8 5
15 11 15 5 0 8 4 5 8 -3 5 0 9 7 9 7 0 21 4 32 8 16 5 17 5 5 -4 -29 -20 -2
-21 41 0 24 11 34 18 22 16 -15 -3 -23 1 -26 14 -5 17 -13 19 -61 17 -31 -2
-56 0 -56 4 0 5 16 8 36 8 19 0 33 4 29 9 -3 5 4 12 15 16 11 3 20 10 20 15 0
5 -14 4 -31 -2 -16 -6 -33 -8 -36 -4 -4 3 1 6 9 6 9 0 21 7 28 15 7 8 20 15
29 15 26 0 108 -44 104 -56 -2 -6 15 -16 37 -23 40 -12 83 -47 75 -61 -5 -8
25 -20 68 -28 4 -1 0 -13 -8 -26 -15 -23 -15 -23 11 -18 24 4 26 2 21 -17 -3
-14 -1 -21 8 -21 8 0 18 -8 24 -17 9 -17 10 -17 29 0 11 10 22 30 26 45 3 15
9 38 12 51 6 21 5 22 -15 12 -22 -12 -24 -10 -21 26 1 17 -4 21 -23 19 -13 -2
-30 -7 -38 -11 -8 -5 -4 3 9 17 26 29 28 38 5 38 -13 0 -14 3 -5 12 16 16 15
28 -3 28 -8 0 -15 5 -15 11 0 7 -13 8 -38 4 -38 -6 -39 -6 -34 23 3 23 0 30
-17 35 -12 3 -21 12 -21 21 0 10 -9 16 -25 16 -19 0 -25 5 -25 21 0 17 -4 20
-22 15 -28 -7 -99 4 -93 14 3 4 24 11 49 14 24 4 52 13 62 21 34 26 70 18 114
-24 36 -34 49 -40 106 -46 41 -4 62 -10 58 -17 -11 -18 105 -4 124 15 19 20 2
23 -30 6 -16 -9 -19 -8 -13 2 6 8 4 11 -6 7 -8 -3 -25 -9 -39 -13 l-25 -8 23
19 c27 23 21 54 -11 54 -20 0 -20 0 1 23 24 26 29 42 10 32 -7 -4 -4 1 6 9 11
9 31 16 44 16 20 0 22 2 9 14 -10 11 -24 12 -48 7 -19 -4 -40 -6 -46 -4 -15 5
-17 33 -3 33 15 0 12 56 -5 70 -8 6 -23 9 -36 5 -14 -5 -19 -4 -15 4 4 6 1 11
-6 12 -7 0 -24 2 -38 5 -14 2 -47 6 -74 9 -62 6 -68 12 -20 20 71 11 84 15 84
25 0 6 -7 10 -16 10 -8 0 -22 7 -30 15 -11 11 -20 12 -34 5 -25 -14 -30 -13
-24 5 7 18 0 19 -28 4 -31 -17 -32 -4 -2 26 23 23 28 25 35 12 9 -16 60 -16
107 -2 30 10 28 29 -2 21 -21 -5 -25 -3 -23 16 2 32 14 38 82 38 34 0 66 5 73
12 12 12 13 10 16 -14 0 -7 15 -14 31 -16 17 -2 34 -8 40 -13 5 -5 25 -9 45
-9 19 0 51 -5 70 -11 38 -12 151 -18 144 -8 -2 4 9 9 24 11 19 3 29 0 29 -9 0
-7 -4 -13 -9 -13 -4 0 -8 -6 -8 -14 0 -8 -8 -16 -17 -19 -15 -3 -13 -6 7 -14
32 -13 58 0 66 33 4 16 12 23 20 20 9 -3 14 1 14 12 0 14 2 14 9 3 7 -11 11
-10 20 7 14 27 14 45 -1 60 -7 7 -16 8 -23 2 -7 -6 -25 -6 -49 1 -31 9 -36 13
-30 31 6 21 6 21 -17 -1 -13 -12 -30 -19 -40 -16 -10 3 -19 -1 -23 -10 -5 -13
-10 -14 -27 -5 -11 6 -27 9 -35 6 -8 -3 -20 3 -26 14 -9 15 -15 16 -26 8 -29
-24 -40 44 -12 77 8 9 8 15 0 20 -5 3 -13 -1 -16 -9 -3 -9 -9 -14 -13 -12 -4
3 -7 -7 -6 -20 0 -19 -8 -29 -32 -39 -27 -12 -31 -12 -26 1 3 8 16 17 28 20
19 5 22 10 16 26 -5 15 4 31 44 71 l50 52 -29 3 c-18 2 -40 -4 -59 -19 -16
-12 -27 -17 -24 -11 10 14 -29 22 -43 8 -9 -8 -11 -5 -5 14 8 25 7 25 -13 6
-12 -10 -20 -21 -18 -25 2 -3 -5 -15 -15 -25 -11 -11 -19 -14 -19 -8 0 6 5 14
10 17 6 3 10 14 10 23 0 9 18 35 38 57 44 46 79 76 68 58 -4 -7 -3 -13 3 -13
5 0 13 5 17 11 3 6 19 9 35 5 15 -3 29 -1 31 3 2 5 17 17 33 27 83 51 96 61
112 91 14 26 15 34 4 47 -9 11 -10 16 -2 16 6 0 11 5 11 10 0 6 -11 10 -25 10
-14 0 -24 5 -22 11 3 14 -31 21 -39 8 -3 -5 2 -9 10 -9 26 0 18 -20 -11 -31
-16 -5 -46 -19 -67 -30 -28 -15 -64 -21 -130 -24 -50 -1 -100 -4 -111 -4 -11
-1 -35 -15 -54 -31 -18 -17 -38 -30 -42 -30 -17 0 -9 29 16 56 14 15 25 32 25
39 0 7 8 20 19 29 10 9 19 28 19 41 0 14 15 40 36 62 19 21 31 40 25 42 -11 3
-135 -45 -157 -62 -16 -12 -72 -95 -72 -106 0 -5 -8 -19 -18 -32 -10 -13 -25
-40 -32 -59 -23 -56 -39 -70 -66 -58 -30 14 -30 22 1 36 25 12 32 26 16 36 -5
3 -14 -1 -21 -9 -7 -8 -17 -12 -23 -8 -6 4 -3 11 8 20 15 10 16 16 7 25 -19
19 -86 -19 -90 -51 -2 -13 -12 -25 -22 -28 -10 -3 -21 -15 -24 -28 -3 -13 -15
-27 -26 -30 -23 -7 -27 -25 -6 -25 7 0 21 -11 30 -25 11 -17 13 -25 4 -25 -14
0 -58 -39 -58 -52 0 -4 9 -8 21 -8 12 0 23 -8 26 -20 3 -11 10 -20 15 -20 6 0
7 -7 4 -15 -6 -16 10 -54 28 -66 5 -4 0 -10 -10 -13 -11 -3 -24 -17 -31 -31
-11 -24 -10 -25 20 -26 22 -1 25 -3 12 -6 -11 -3 -26 -10 -33 -15 -9 -8 -17
-6 -30 5 -9 8 -37 22 -62 30 -29 10 -44 21 -42 30 1 8 -8 18 -20 22 l-23 7 23
6 c31 9 31 12 4 49 -12 17 -22 36 -22 42 0 6 -3 11 -8 11 -9 0 -49 84 -58 123
-3 15 -12 27 -20 27 -8 0 -13 3 -12 8 2 11 -13 45 -30 65 -8 9 -12 20 -9 24 4
3 2 12 -4 19 -19 23 17 28 64 10 64 -24 82 -21 101 18 20 42 20 52 1 36 -8 -7
-15 -18 -15 -24 0 -6 -14 -17 -30 -23 -28 -11 -32 -9 -56 22 -14 19 -33 37
-42 40 -10 2 -32 27 -50 54 -18 26 -44 53 -57 59 -13 6 -31 28 -41 49 -10 21
-27 54 -39 73 -12 19 -30 72 -40 117 -16 72 -17 90 -6 140 16 71 21 82 52 105
45 34 113 34 230 -1 127 -38 234 -48 249 -23 7 13 11 14 18 4 7 -10 14 -10 38
3 16 8 25 15 20 15 -5 0 5 13 22 30 20 18 37 27 47 24 11 -5 18 0 22 15 4 17
11 20 33 16 22 -4 29 -1 33 16 5 18 11 21 36 16 17 -4 31 -2 31 3 0 5 17 12
38 16 20 4 44 13 53 21 9 7 23 11 32 7 12 -4 14 -1 10 15 -4 16 -1 21 15 21
25 0 72 20 72 31 0 4 -4 11 -10 14 -5 3 -9 14 -9 23 1 15 2 15 6 0 5 -20 29
-24 35 -7 5 14 91 14 96 0 2 -6 10 -11 18 -11 9 0 14 11 14 34 0 19 5 38 12
42 7 5 8 3 3 -5 -4 -7 0 -27 8 -44 9 -18 21 -47 27 -64 7 -18 16 -30 21 -27
12 7 11 -3 -1 -27 -15 -28 -33 -24 -27 7 4 23 2 25 -18 22 -19 -4 -24 0 -29
25 -9 43 -17 29 -9 -16 4 -26 10 -36 21 -35 9 2 18 -7 22 -22 4 -14 12 -24 18
-22 17 3 15 -17 -3 -34 -8 -9 -15 -11 -15 -6 0 8 -36 22 -70 27 -3 0 -11 4
-17 8 -8 5 -13 3 -13 -5 1 -16 25 -50 31 -43 3 2 17 -20 31 -50 15 -30 23 -55
18 -55 -5 0 -11 9 -15 19 -9 29 -31 45 -38 27 -7 -18 58 -90 73 -81 5 3 10 2
10 -4 0 -16 47 -44 60 -36 7 4 8 11 1 18 -5 7 -13 30 -17 52 -6 32 -9 36 -14
20 -7 -19 -8 -18 -14 5 -11 50 -9 103 3 60 5 -18 14 -25 31 -25 14 0 29 5 33
10 6 6 10 6 14 -2 2 -7 13 -13 22 -13 17 0 41 -54 41 -94 0 -9 5 -16 10 -16 6
0 10 7 10 15 0 8 5 15 11 15 5 0 7 5 4 10 -3 6 -1 10 4 10 6 0 11 8 11 17 0
15 2 14 15 -3 13 -18 14 -18 15 -1 0 16 2 17 15 3 8 -8 15 -21 15 -28 1 -7 7
-2 15 12 l15 25 6 -22 c3 -13 10 -20 15 -17 8 5 21 -8 53 -51 15 -19 15 -19
16 -1 0 11 -6 27 -13 35 -23 27 -43 158 -29 194 12 31 8 52 -9 42 -5 -4 -9 1
-9 10 0 9 -5 13 -11 9 -6 -3 -15 0 -20 7 -6 9 -9 -3 -10 -36 -1 -27 -1 -53 0
-57 0 -5 -3 -8 -8 -8 -6 0 -25 24 -42 54 -18 30 -35 54 -38 54 -29 -3 -51 5
-51 17 0 8 -7 15 -15 15 -20 0 -33 31 -24 60 4 14 7 19 8 13 1 -7 8 -13 16
-13 9 0 18 -7 21 -15 9 -23 23 -18 30 10 6 23 8 24 19 9 6 -9 17 -14 22 -11 6
4 13 -2 16 -12 6 -26 53 -17 61 12 3 12 8 18 12 15 8 -8 64 55 65 73 0 10 2
11 6 2 8 -20 72 37 94 82 14 31 17 34 12 11 l-6 -28 44 23 c24 13 45 27 47 31
3 6 83 3 86 -4z m-640 -204 c8 -21 8 -24 -3 -24 -5 0 -11 9 -14 20 -6 24 8 27
17 4z m49 -35 c-8 -8 -13 -7 -18 2 -5 8 -4 10 3 5 7 -4 12 -2 12 5 0 7 3 9 7
6 4 -4 2 -12 -4 -18z m8 -76 c5 -14 7 -33 4 -41 -4 -12 -9 -10 -25 8 -23 26
-22 23 -14 44 9 24 23 19 35 -11z m79 13 c0 -3 -4 -8 -10 -11 -5 -3 -10 -1
-10 4 0 6 5 11 10 11 6 0 10 -2 10 -4z m890 -544 c0 -11 -149 -96 -156 -89 -6
5 98 67 113 67 6 0 16 7 23 15 14 17 20 19 20 7z m233 -279 c-7 -2 -19 -2 -25
0 -7 3 -2 5 12 5 14 0 19 -2 13 -5z m-1458 -43 c3 -5 17 -10 30 -10 28 0 44
-19 18 -22 -28 -2 -36 -4 -66 -16 -16 -7 -34 -12 -41 -12 -7 0 -25 -10 -40
-21 -33 -26 -40 -21 -31 21 7 31 12 35 80 58 40 13 43 14 50 2z m95 -4 c0 -3
-4 -8 -10 -11 -5 -3 -10 -1 -10 4 0 6 5 11 10 11 6 0 10 -2 10 -4z m-504 -81
c-11 -8 -25 -15 -30 -15 -6 0 -2 7 8 15 11 8 25 15 30 15 6 0 2 -7 -8 -15z
m1518 6 c4 -5 27 -19 52 -31 25 -12 44 -24 42 -26 -6 -5 -106 45 -113 56 -3 6
-2 10 4 10 5 0 12 -4 15 -9z m-3 -44 c-8 -8 -16 -7 -27 5 -14 14 -14 15 11 10
19 -3 23 -8 16 -15z m17 -22 c17 -4 32 -11 32 -16 0 -5 -11 -7 -25 -4 -14 3
-36 7 -50 10 -14 3 -25 10 -25 16 0 6 8 8 18 5 9 -2 32 -7 50 -11z m112 -25
c0 -5 -7 -10 -16 -10 -8 0 -12 5 -9 10 3 6 10 10 16 10 5 0 9 -4 9 -10z
m-1446 -26 c11 -4 16 -19 16 -45 l0 -40 -50 3 c-27 2 -50 6 -50 11 0 4 5 7 10
7 6 0 10 5 10 11 0 9 39 58 47 59 1 0 8 -3 17 -6z m1296 -84 c0 -5 -7 -10 -15
-10 -8 0 -15 -5 -15 -10 0 -6 -6 -5 -14 2 -10 9 -11 15 -2 20 16 11 46 10 46
-2z m-1280 -14 c0 -3 -4 -8 -10 -11 -5 -3 -10 -1 -10 4 0 6 5 11 10 11 6 0 10
-2 10 -4z m1630 -16 c0 -5 -2 -10 -4 -10 -3 0 -8 5 -11 10 -3 6 -1 10 4 10 6
0 11 -4 11 -10z m-1430 -34 c0 -2 -7 -7 -16 -10 -8 -3 -12 -2 -9 4 6 10 25 14
25 6z m-339 -54 c17 -15 17 -17 -14 -40 -18 -14 -24 -22 -15 -19 10 3 20 2 23
-3 7 -11 -43 -50 -66 -50 -10 0 -20 -4 -23 -9 -3 -5 -24 -11 -45 -13 -38 -3
-39 -2 -24 14 9 10 23 18 32 18 14 0 14 2 2 9 -12 8 -9 11 12 16 29 8 36 22
12 27 -28 6 2 31 37 30 l33 -1 -22 19 c-13 10 -23 21 -23 25 0 11 61 -6 81
-23z m-210 -88 c12 -15 11 -16 -11 -9 -24 7 -24 6 -6 -8 19 -14 19 -15 -3 -27
-20 -10 -26 -9 -40 5 -9 9 -11 15 -6 14 21 -3 29 2 16 10 -7 5 -10 14 -7 20
10 16 42 13 57 -5z m893 -18 c-6 -15 -24 -23 -24 -11 0 8 24 34 28 30 1 -1 0
-10 -4 -19z m511 -366 c3 -5 1 -10 -4 -10 -6 0 -11 5 -11 10 0 6 2 10 4 10 3
0 8 -4 11 -10z m126 -298 c-7 -2 -18 1 -23 6 -8 8 -4 9 13 5 13 -4 18 -8 10
-11z m-1560 -45 c-10 -9 -11 -8 -5 6 3 10 9 15 12 12 3 -3 0 -11 -7 -18z
m1496 17 c-3 -3 -12 -4 -19 -1 -8 3 -5 6 6 6 11 1 17 -2 13 -5z m40 0 c-3 -3
-12 -4 -19 -1 -8 3 -5 6 6 6 11 1 17 -2 13 -5z m-93 -20 c4 -10 1 -14 -6 -12
-15 5 -23 28 -10 28 5 0 13 -7 16 -16z m-39 -14 c3 -5 -1 -10 -9 -10 -9 0 -16
-5 -16 -12 0 -6 -2 -9 -5 -6 -7 7 5 38 15 38 5 0 12 -4 15 -10z m-175 -43 c0
-5 -4 -5 -10 -2 -5 3 -10 14 -10 23 0 15 2 15 10 2 5 -8 10 -19 10 -23z
m-1240 -17 c0 -5 -5 -10 -11 -10 -5 0 -7 5 -4 10 3 6 8 10 11 10 2 0 4 -4 4
-10z m-11 -304 c8 -9 8 -16 2 -20 -5 -4 -12 -2 -16 3 -3 6 -13 7 -22 4 -15 -6
-16 -5 -3 10 19 20 24 21 39 3z m1251 -84 c0 -5 -7 -9 -15 -9 -8 0 -15 4 -15
9 0 4 7 8 15 8 8 0 15 -4 15 -8z m-1274 -47 c14 -13 13 -15 -5 -15 -21 0 -35
13 -24 24 9 9 13 8 29 -9z m154 1 c0 -3 -4 -8 -10 -11 -5 -3 -10 -1 -10 4 0 6
5 11 10 11 6 0 10 -2 10 -4z m-280 -26 c-24 -15 -36 -11 -14 4 10 8 21 12 24
10 2 -3 -2 -9 -10 -14z m90 0 c0 -5 -4 -10 -10 -10 -5 0 -10 5 -10 10 0 6 5
10 10 10 6 0 10 -4 10 -10z m147 4 c-3 -3 -12 -4 -19 -1 -8 3 -5 6 6 6 11 1
17 -2 13 -5z m1188 -3 c3 -5 1 -12 -5 -16 -5 -3 -10 1 -10 9 0 18 6 21 15 7z
m-1141 -152 c14 -7 23 -15 21 -19 -2 -4 9 -7 26 -8 17 0 41 -8 54 -16 29 -19
52 -20 58 -3 3 6 6 -1 6 -18 1 -34 21 -74 21 -42 0 19 44 24 56 6 4 -8 0 -9
-15 -4 -23 7 -28 -4 -10 -22 6 -6 9 -21 6 -34 l-4 -24 -8 22 c-4 13 -11 20
-16 17 -13 -8 -11 -119 3 -149 8 -19 9 -28 0 -37 -8 -8 -14 -4 -22 17 -6 16
-18 34 -27 40 -12 9 -15 24 -11 66 3 30 3 48 1 41 -3 -6 -10 -9 -15 -6 -8 5
-9 -4 -5 -28 8 -52 -18 -74 -50 -42 -14 14 -15 21 -5 48 7 18 8 32 3 34 -6 2
-7 10 -4 19 4 11 2 14 -5 9 -7 -4 -12 -2 -12 6 0 7 -12 14 -27 15 -15 0 -29 6
-31 12 -3 8 -10 7 -25 -1 -12 -7 -38 -13 -57 -14 -19 -1 -36 -6 -38 -13 -2 -6
-13 -16 -24 -22 -17 -9 -18 -8 -9 9 6 11 16 22 23 25 10 3 10 7 1 17 -15 16
64 92 114 109 1 1 13 -4 27 -10z m1126 -29 c0 -5 -4 -10 -10 -10 -5 0 -11 -12
-11 -27 l-1 -28 -7 30 c-4 17 -6 33 -4 38 6 11 33 9 33 -3z m-1437 -97 c-7 -2
-13 -11 -13 -19 0 -17 30 -8 48 14 7 9 12 11 12 4 0 -6 -11 -22 -25 -36 -14
-14 -25 -32 -25 -40 0 -8 -9 -18 -20 -21 -11 -3 -20 -13 -20 -21 0 -8 -8 -14
-18 -14 -10 0 -19 7 -19 15 0 8 7 15 16 15 13 0 13 2 -1 16 -15 16 -14 20 20
55 20 21 42 38 47 38 6 0 4 -3 -2 -6z m1277 3 c0 -3 -4 -8 -10 -11 -5 -3 -10
-1 -10 4 0 6 5 11 10 11 6 0 10 -2 10 -4z m-933 -69 c-2 -25 -34 -63 -44 -53
-3 3 -19 -4 -35 -15 -16 -12 -35 -18 -43 -15 -8 3 -17 0 -21 -6 -5 -7 -2 -8 7
-4 8 4 5 0 -6 -9 -19 -15 -20 -15 -27 7 -3 13 -7 16 -7 8 -1 -13 -2 -13 -11 0
-16 24 -13 27 49 64 52 30 73 38 128 45 7 0 11 -9 10 -22z m2388 -75 c-6 -4
-10 -13 -10 -19 0 -20 -19 -20 -23 -1 -4 23 20 50 33 37 6 -7 6 -12 0 -17z
m-2580 -32 c3 -5 1 -10 -4 -10 -6 0 -11 5 -11 10 0 6 2 10 4 10 3 0 8 -4 11
-10z m-251 -12 c-15 -27 -27 -38 -35 -32 -5 3 1 14 13 24 27 23 32 24 22 8z
m46 -18 c0 -5 -5 -10 -11 -10 -5 0 -7 5 -4 10 3 6 8 10 11 10 2 0 4 -4 4 -10z
m62 1 c23 12 29 9 31 -20 1 -11 7 -21 15 -21 7 0 10 -4 7 -10 -3 -5 -17 -10
-30 -10 -13 0 -31 -8 -41 -17 -16 -17 -60 -43 -71 -43 -3 0 -1 6 5 13 5 6 12
21 16 32 5 19 3 21 -30 17 -26 -3 -35 -1 -30 7 4 6 14 11 22 11 8 0 12 5 9 10
-4 7 3 8 20 4 21 -5 27 -3 32 15 4 15 9 19 16 12 7 -7 16 -7 29 0z m188 -43
c0 -7 -12 -19 -27 -25 -34 -16 -41 -11 -8 7 14 7 25 17 25 22 0 4 2 8 5 8 3 0
5 -6 5 -12z m1305 -128 c-3 -5 -12 -10 -18 -10 -7 0 -6 4 3 10 19 12 23 12 15
0z"/>
<path d="M2385 3500 c-8 -9 -12 -20 -8 -23 3 -4 -2 -17 -13 -28 -19 -22 -19
-22 6 -15 18 5 21 5 10 -3 -22 -15 -5 -24 18 -10 16 10 42 67 42 91 0 11 -43
2 -55 -12z"/>
<path d="M2375 3370 c-22 -23 -26 -33 -17 -39 10 -6 10 -10 -2 -21 -9 -7 -14
-16 -11 -20 3 -4 -2 -10 -10 -14 -8 -3 -15 -10 -15 -17 0 -6 7 -9 15 -5 18 7
19 -5 3 -24 -7 -7 7 2 32 20 25 19 47 38 50 41 7 10 -1 109 -9 109 -4 0 -20
-14 -36 -30z"/>
<path d="M2330 3320 c0 -5 5 -10 10 -10 6 0 10 5 10 10 0 6 -4 10 -10 10 -5 0
-10 -4 -10 -10z"/>
<path d="M2031 3294 c0 -11 3 -14 6 -6 3 7 2 16 -1 19 -3 4 -6 -2 -5 -13z"/>
<path d="M2400 3251 c0 -11 -10 -28 -23 -38 -13 -10 -30 -29 -39 -43 -17 -28
-35 -106 -18 -80 5 8 10 23 10 33 0 9 5 17 10 17 6 0 10 -6 9 -12 -3 -24 3
-53 8 -41 3 9 9 10 22 1 10 -6 25 -9 33 -5 17 6 33 80 19 85 -5 2 -7 18 -4 37
4 24 1 39 -11 50 -15 15 -16 15 -16 -4z"/>
<path d="M2365 3230 c-10 -11 -13 -20 -8 -20 13 0 38 29 31 35 -3 3 -13 -4
-23 -15z"/>
<path d="M1535 3225 c-19 -8 -24 -14 -13 -14 10 -1 22 -10 28 -21 10 -18 13
-19 32 -6 22 16 42 12 71 -12 22 -19 23 0 1 33 -16 25 -54 35 -54 14 0 -6 -7
-3 -16 5 -8 9 -16 16 -17 16 -1 -1 -15 -7 -32 -15z"/>
<path d="M2171 3150 c-1 -39 10 -63 31 -66 10 -1 13 7 10 27 -5 34 -21 49 -23
22 -1 -10 -5 -2 -9 17 l-7 35 -2 -35z"/>
<path d="M1596 3061 c-6 -10 33 -58 44 -54 3 0 11 -5 18 -13 11 -12 9 -14 -13
-14 -19 0 -28 7 -36 27 -8 21 -12 24 -19 14 -6 -11 -9 -8 -12 9 -1 13 -9 25
-15 28 -19 6 -29 -28 -12 -39 14 -9 10 -11 -26 -13 -11 -1 -20 -7 -20 -13 0
-7 2 -12 5 -11 3 1 16 -5 30 -12 13 -7 40 -14 60 -15 19 -1 54 -6 78 -10 47
-8 54 3 21 33 -11 11 -28 35 -38 53 -18 34 -53 50 -65 30z"/>
<path d="M2400 3060 c0 -5 5 -10 10 -10 6 0 10 5 10 10 0 6 -4 10 -10 10 -5 0
-10 -4 -10 -10z"/>
<path d="M1434 3033 c-9 -15 -15 -16 -38 -5 -38 17 -76 15 -76 -3 0 -8 -5 -15
-11 -15 -5 0 -8 -4 -5 -9 3 -5 -4 -11 -16 -14 -12 -4 -19 -9 -15 -13 4 -4 -6
-13 -22 -20 -15 -6 -35 -26 -42 -43 -8 -17 -17 -31 -21 -31 -5 0 -8 -6 -8 -14
0 -8 -6 -16 -12 -19 -10 -3 -10 -7 0 -20 22 -26 -22 -33 -56 -9 -23 17 -37 19
-87 14 -33 -4 -70 -6 -82 -4 -25 4 -32 22 -8 22 8 0 15 5 15 10 0 8 -71 15
-145 13 -11 0 -24 6 -28 13 -4 8 -19 14 -33 14 -13 0 -27 7 -30 15 -5 11 -22
15 -64 15 -48 0 -59 -3 -62 -18 -6 -22 71 -112 96 -112 9 0 16 -4 16 -9 0 -5
3 -16 6 -24 3 -9 -3 -17 -18 -20 -22 -6 -22 -7 -5 -24 14 -14 19 -15 26 -5 16
27 126 -44 114 -74 -6 -17 23 -54 43 -54 7 0 28 -16 48 -35 l36 -34 26 24 c15
14 37 25 50 25 13 0 28 9 34 19 8 17 3 28 -35 67 -24 26 -42 51 -40 55 3 3 -2
12 -10 19 -8 7 -15 19 -15 27 0 12 9 9 34 -11 19 -14 42 -26 51 -26 20 0 47
-60 34 -76 -5 -6 -6 -14 -2 -17 11 -11 43 -8 43 4 0 28 48 54 92 50 9 -1 19 3
23 9 3 5 1 10 -4 10 -25 0 -7 17 44 40 42 19 54 29 51 43 -2 10 2 17 10 17 8
0 11 6 7 18 -5 14 -3 15 7 5 8 -8 18 -9 24 -4 6 5 24 11 40 13 37 4 48 28 12
28 -41 0 -38 16 5 29 35 11 39 15 33 34 -4 12 -10 23 -14 25 -5 2 -5 15 -1 30
4 15 5 37 2 50 -6 20 -7 21 -17 5z m-323 -262 c12 -11 19 -27 17 -37 -3 -19
-28 -32 -28 -14 0 6 5 8 10 5 19 -12 10 21 -10 35 -19 14 -27 30 -15 30 3 0
15 -9 26 -19z"/>
<path d="M2060 3028 c0 -9 5 -20 10 -23 13 -8 13 5 0 25 -8 13 -10 13 -10 -2z"/>
<path d="M635 3020 c3 -5 13 -10 21 -10 8 0 14 5 14 10 0 6 -9 10 -21 10 -11
0 -17 -4 -14 -10z"/>
<path d="M1965 3020 c-8 -13 4 -32 16 -25 12 8 12 35 0 35 -6 0 -13 -4 -16
-10z"/>
<path d="M615 2990 c3 -5 11 -10 16 -10 6 0 7 5 4 10 -3 6 -11 10 -16 10 -6 0
-7 -4 -4 -10z"/>
<path d="M650 2981 c0 -14 5 -19 15 -14 17 6 15 25 -3 31 -7 2 -12 -5 -12 -17z"/>
<path d="M770 2986 c0 -8 -6 -17 -12 -19 -20 -8 54 -6 82 2 25 7 25 7 -9 19
-45 16 -61 15 -61 -2z"/>
<path d="M1470 2990 c0 -5 5 -10 10 -10 6 0 10 5 10 10 0 6 -4 10 -10 10 -5 0
-10 -4 -10 -10z"/>
<path d="M1047 2983 c-10 -15 7 -30 41 -38 32 -7 33 -6 23 14 -7 12 -16 21
-21 21 -4 0 -15 3 -23 6 -8 3 -17 1 -20 -3z"/>
<path d="M2292 2958 c-12 -6 -25 -21 -28 -34 -8 -31 41 -112 72 -120 13 -3 28
-12 35 -20 6 -8 29 -14 49 -14 34 0 39 3 45 29 5 22 0 40 -19 70 -14 22 -26
47 -26 55 0 17 -54 46 -84 45 -12 0 -31 -5 -44 -11z m93 -68 c7 -11 -9 -11
-45 0 -24 8 -24 8 7 9 17 1 35 -3 38 -9z"/>
<path d="M1528 2939 c4 -4 22 -10 40 -14 24 -5 32 -3 32 8 0 10 -11 14 -40 13
-22 0 -36 -4 -32 -7z"/>
<path d="M837 2928 c-51 -18 -16 -28 94 -28 60 0 109 -3 109 -7 0 -5 11 -9 25
-9 14 -1 25 2 25 7 0 5 -5 9 -11 9 -6 0 -9 7 -5 15 3 8 2 15 -2 16 -4 0 -25 2
-47 4 l-40 4 32 -12 c17 -7 35 -16 40 -21 5 -6 0 -6 -12 -1 -11 5 -51 10 -89
12 -38 1 -74 7 -80 12 -6 5 -23 4 -39 -1z"/>
<path d="M1510 2890 c0 -5 12 -10 26 -10 14 0 23 4 19 10 -3 6 -15 10 -26 10
-10 0 -19 -4 -19 -10z"/>
<path d="M1707 2846 c-20 -19 -44 -51 -53 -72 -15 -36 -15 -38 7 -55 22 -16
23 -16 34 4 6 12 18 23 28 25 26 5 21 -33 -5 -45 -22 -10 -21 -12 22 -32 64
-29 116 -27 183 9 35 19 58 26 62 19 4 -6 12 -3 21 8 12 16 15 16 24 3 5 -8 8
-21 5 -27 -2 -7 0 -13 5 -13 6 0 10 17 10 38 0 38 -2 40 -102 105 -92 60 -107
67 -153 67 -44 0 -56 -5 -88 -34z m138 -46 c7 -12 -12 -12 -40 0 -18 8 -17 9
7 9 15 1 30 -3 33 -9z"/>
<path d="M1055 2860 c-3 -5 3 -10 14 -10 11 0 23 5 26 10 3 6 -3 10 -14 10
-11 0 -23 -4 -26 -10z"/>
<path d="M1350 2790 c0 -5 7 -10 16 -10 8 0 12 5 9 10 -3 6 -10 10 -16 10 -5
0 -9 -4 -9 -10z"/>
<path d="M2374 2746 c-10 -26 -44 -40 -100 -42 -95 -3 -131 -47 -49 -60 68
-10 94 -44 60 -78 -20 -20 -19 -44 3 -49 12 -2 4 -9 -25 -23 -24 -10 -43 -22
-43 -26 0 -5 -7 -8 -15 -8 -20 0 -19 -10 6 -36 12 -13 28 -20 38 -17 13 4 13
3 2 -5 -7 -5 -11 -14 -7 -20 4 -6 -3 -8 -16 -5 l-23 5 23 -17 c16 -12 31 -15
50 -10 15 4 36 9 47 10 11 2 40 8 65 14 60 14 57 15 64 -14 4 -16 13 -25 27
-25 11 0 17 -4 14 -10 -3 -5 1 -10 9 -10 9 0 16 9 16 20 0 11 -4 20 -9 20 -10
0 -8 46 2 56 4 4 -3 20 -14 35 -11 16 -17 29 -12 30 4 0 -2 4 -15 10 -18 7
-22 14 -17 29 4 11 3 19 -2 18 -19 -5 -52 14 -46 28 3 7 0 14 -7 14 -7 0 -10
7 -6 16 3 8 8 44 12 78 4 49 2 65 -10 75 -13 11 -17 10 -22 -3z"/>
<path d="M2543 2732 c-3 -14 -11 -18 -24 -15 -22 6 -25 -9 -6 -26 11 -8 18 -7
29 7 24 28 29 40 17 47 -6 4 -13 -2 -16 -13z"/>
<path d="M1700 2579 c0 -10 50 -20 62 -13 7 4 8 3 4 -4 -4 -7 -1 -12 9 -12 9
0 13 5 10 10 -3 6 -1 10 5 10 6 0 8 5 5 10 -7 11 -95 9 -95 -1z"/>
<path d="M1648 2573 c7 -3 16 -2 19 1 4 3 -2 6 -13 5 -11 0 -14 -3 -6 -6z"/>
<path d="M1740 2530 c0 -5 5 -10 10 -10 6 0 10 5 10 10 0 6 -4 10 -10 10 -5 0
-10 -4 -10 -10z"/>
<path d="M2638 2533 c6 -2 18 -2 25 0 6 3 1 5 -13 5 -14 0 -19 -2 -12 -5z"/>
<path d="M2235 2520 c3 -5 8 -10 11 -10 2 0 4 5 4 10 0 6 -5 10 -11 10 -5 0
-7 -4 -4 -10z"/>
<path d="M950 2459 c0 -5 5 -7 10 -4 6 3 10 8 10 11 0 2 -4 4 -10 4 -5 0 -10
-5 -10 -11z"/>
<path d="M2690 2416 c0 -11 85 -45 93 -37 5 5 -4 12 -22 16 -17 3 -33 11 -36
16 -6 9 -35 13 -35 5z"/>
<path d="M2400 2349 c0 -5 5 -7 10 -4 6 3 10 8 10 11 0 2 -4 4 -10 4 -5 0 -10
-5 -10 -11z"/>
<path d="M2214 2329 c0 -17 5 -20 28 -15 15 3 28 1 28 -4 0 -17 17 -11 23 8 3
15 -1 19 -22 19 -14 0 -33 3 -41 6 -12 6 -16 2 -16 -14z"/>
<path d="M1698 2303 c6 -2 18 -2 25 0 6 3 1 5 -13 5 -14 0 -19 -2 -12 -5z"/>
<path d="M2066 2281 c-4 -7 -5 -15 -2 -18 9 -9 19 4 14 18 -4 11 -6 11 -12 0z"/>
<path d="M2010 2270 c0 -5 5 -10 10 -10 6 0 10 5 10 10 0 6 -4 10 -10 10 -5 0
-10 -4 -10 -10z"/>
<path d="M1986 2261 c-4 -7 -5 -15 -2 -18 9 -9 19 4 14 18 -4 11 -6 11 -12 0z"/>
<path d="M1440 1920 c0 -5 9 -10 19 -10 11 0 23 5 26 10 4 6 -5 10 -19 10 -14
0 -26 -4 -26 -10z"/>
<path d="M1835 1914 c9 -9 19 -13 23 -10 3 4 0 11 -8 16 -24 15 -33 11 -15 -6z"/>
<path d="M1590 1898 c-5 -13 -9 -17 -9 -10 -1 22 -45 9 -56 -15 -6 -14 -19
-23 -32 -23 -12 0 -27 -9 -33 -20 -10 -19 -8 -20 41 -20 50 0 139 33 139 52 0
4 8 8 18 8 15 1 15 2 -3 16 -44 34 -55 36 -65 12z"/>
<path d="M1522 1761 c-6 -3 -8 -12 -4 -18 5 -8 12 -8 25 2 14 10 15 14 4 18
-8 3 -19 2 -25 -2z"/>
<path d="M2000 1486 c0 -8 5 -18 10 -21 6 -3 10 1 10 9 0 8 -4 18 -10 21 -5 3
-10 -1 -10 -9z"/>
<path d="M1950 1481 c0 -5 3 -17 6 -25 5 -13 10 -14 20 -6 7 7 10 18 7 26 -6
15 -33 20 -33 5z"/>
<path d="M1981 1374 c0 -11 3 -14 6 -6 3 7 2 16 -1 19 -3 4 -6 -2 -5 -13z"/>
<path d="M1749 1252 c-30 -35 -29 -50 1 -60 26 -9 28 -8 33 16 3 15 0 34 -7
44 -12 16 -13 16 -27 0z"/>
<path d="M1674 1235 c-20 -31 -9 -48 13 -20 8 11 19 19 25 17 7 -2 6 3 -2 12
-16 21 -17 20 -36 -9z"/>
<path d="M1110 1240 c-18 -12 -2 -12 25 0 13 6 15 9 5 9 -8 0 -22 -4 -30 -9z"/>
<path d="M1126 1215 c-3 -8 -1 -15 4 -15 13 0 22 18 11 24 -5 3 -11 -1 -15 -9z"/>
<path d="M1550 1219 c0 -5 5 -7 10 -4 6 3 10 8 10 11 0 2 -4 4 -10 4 -5 0 -10
-5 -10 -11z"/>
<path d="M1805 1219 c-4 -6 -5 -12 -2 -15 2 -3 7 2 10 11 7 17 1 20 -8 4z"/>
<path d="M1102 1175 c-17 -19 -1 -19 24 0 14 11 15 14 4 14 -8 0 -21 -6 -28
-14z"/>
<path d="M1101 1127 c-13 -21 -12 -21 5 -5 10 10 16 20 13 22 -3 3 -11 -5 -18
-17z"/>
<path d="M1167 1092 c-10 -10 -17 -22 -17 -25 0 -10 29 -8 51 3 17 10 18 13 5
25 -18 19 -20 19 -39 -3z"/>
<path d="M1776 1063 c-6 -14 -5 -15 5 -6 7 7 10 15 7 18 -3 3 -9 -2 -12 -12z"/>
<path d="M1050 1025 c-11 -13 -10 -14 4 -9 9 3 16 10 16 15 0 13 -6 11 -20 -6z"/>
<path d="M1700 1020 c-58 -18 -135 -68 -141 -91 -5 -16 -7 -18 -8 -6 -1 21
-14 22 -31 2 -13 -16 -35 -21 -26 -6 7 10 -40 7 -69 -5 -11 -4 -28 -17 -37
-29 -10 -11 -17 -15 -18 -7 0 6 -9 12 -20 12 -14 0 -18 5 -13 17 5 14 1 13
-24 -5 -19 -14 -46 -22 -70 -22 -22 0 -48 -7 -59 -15 -18 -14 -18 -14 0 -15
12 0 16 -5 12 -16 -3 -9 -6 -18 -6 -20 0 -2 -4 -4 -10 -4 -5 0 -7 7 -4 15 4 9
0 15 -9 15 -9 0 -18 -9 -22 -19 -3 -10 -19 -24 -35 -31 -47 -19 -37 -33 18
-25 26 4 52 11 58 16 9 8 38 12 132 18 6 1 11 4 10 9 -2 4 6 17 16 29 20 22
44 21 59 -4 4 -7 16 -13 26 -13 10 0 26 -9 36 -20 10 -11 24 -20 31 -20 7 0
14 -4 16 -10 2 -5 23 -10 48 -12 43 -3 44 -2 47 30 2 23 -1 32 -12 32 -16 0
-35 30 -35 57 0 15 2 16 10 3 8 -13 10 -13 10 -1 0 10 6 8 21 -7 11 -12 24
-20 30 -17 8 5 11 -7 8 -32 -1 -8 28 -21 48 -22 7 -1 10 5 7 13 -3 9 -12 12
-22 9 -12 -5 -14 -2 -9 11 4 10 7 24 7 31 0 7 15 15 34 17 24 3 32 0 29 -9 -4
-9 5 -13 28 -13 18 0 29 -3 26 -7 -4 -3 3 -11 16 -18 20 -10 23 -8 28 15 6 29
-4 53 -41 96 -20 23 -26 39 -23 58 5 22 2 26 -18 25 -13 0 -35 -4 -49 -9z"/>
<path d="M1280 980 c0 -17 3 -19 19 -8 21 13 19 28 -5 28 -8 0 -14 -9 -14 -20z"/>
<path d="M1141 914 c-14 -13 -22 -27 -18 -31 9 -9 51 31 46 44 -2 6 -15 0 -28
-13z"/>
<path d="M1062 887 c-31 -33 -27 -41 8 -20 17 9 30 23 30 30 0 19 -14 16 -38
-10z"/>
<path d="M1120 850 c-8 -5 -12 -11 -10 -14 3 -2 14 2 24 10 22 15 10 19 -14 4z"/>
<path d="M1068 843 c7 -3 16 -2 19 1 4 3 -2 6 -13 5 -11 0 -14 -3 -6 -6z"/>
<path d="M1360 821 c0 -5 7 -11 14 -14 10 -4 13 -1 9 9 -6 15 -23 19 -23 5z"/>
<path d="M1018 753 c7 -3 16 -2 19 1 4 3 -2 6 -13 5 -11 0 -14 -3 -6 -6z"/>
<path d="M1789 744 c-13 -16 2 -18 35 -5 19 7 19 8 -2 13 -12 4 -26 0 -33 -8z"/>
<path d="M1590 456 c0 -9 5 -16 10 -16 6 0 10 4 10 9 0 6 -4 13 -10 16 -5 3
-10 -1 -10 -9z"/>
<path d="M1905 420 c-3 -5 -5 -10 -3 -11 29 -7 36 -5 31 7 -6 16 -19 18 -28 4z"/>
<path d="M1860 375 c0 -8 4 -23 9 -33 5 -9 16 -33 25 -52 l16 -35 -5 38 c-4
24 -2 37 5 37 14 0 3 42 -14 52 -18 13 -36 9 -36 -7z"/>
<path d="M2026 341 c-4 -7 -5 -15 -2 -18 9 -9 19 4 14 18 -4 11 -6 11 -12 0z"/>
<path d="M1750 231 c0 -6 4 -13 10 -16 6 -3 7 1 4 9 -7 18 -14 21 -14 7z"/>
<path d="M3743 123 c-18 -7 -16 -23 2 -23 8 0 15 7 15 15 0 8 -1 15 -2 14 -2
0 -9 -3 -15 -6z"/>
<path d="M3890 60 c0 -5 5 -10 11 -10 5 0 7 5 4 10 -3 6 -8 10 -11 10 -2 0 -4
-4 -4 -10z"/>
<path d="M875 40 c-3 -5 -1 -10 4 -10 6 0 11 5 11 10 0 6 -2 10 -4 10 -3 0 -8
-4 -11 -10z"/>
<path d="M1090 35 c-10 -13 -9 -15 8 -15 15 0 20 5 16 15 -4 8 -7 15 -9 15 -1
0 -8 -7 -15 -15z"/>
<path d="M3916 14 c-5 -14 -4 -15 9 -4 17 14 19 20 6 20 -5 0 -12 -7 -15 -16z"/>
<path d="M3985 20 c3 -5 8 -10 11 -10 2 0 4 5 4 10 0 6 -5 10 -11 10 -5 0 -7
-4 -4 -10z"/>
<path d="M750 10 c0 -5 5 -10 10 -10 6 0 10 5 10 10 0 6 -4 10 -10 10 -5 0
-10 -4 -10 -10z"/>
</g>
</svg>
